<svg width="300" height="36" viewBox="0 0 300 36" fill="none" xmlns="http://www.w3.org/2000/svg">
<path d="M13.6818 35H0.25V0.0909081H13.5455C17.1364 0.0909081 20.2386 0.789772 22.8523 2.1875C25.4773 3.57386 27.5 5.57386 28.9205 8.1875C30.3523 10.7898 31.0682 13.9091 31.0682 17.5455C31.0682 21.1818 30.358 24.3068 28.9375 26.9205C27.517 29.5227 25.5057 31.5227 22.9034 32.9205C20.3011 34.3068 17.2273 35 13.6818 35ZM9.72727 26.9545H13.3409C15.0682 26.9545 16.5398 26.6761 17.7557 26.1193C18.983 25.5625 19.9148 24.6023 20.5511 23.2386C21.1989 21.875 21.5227 19.9773 21.5227 17.5455C21.5227 15.1136 21.1932 13.2159 20.5341 11.8523C19.8864 10.4886 18.9318 9.52841 17.6705 8.97159C16.4205 8.41477 14.8864 8.13636 13.0682 8.13636H9.72727V26.9545ZM42.8849 35.4091C41.2145 35.4091 39.7372 35.1364 38.4531 34.5909C37.1804 34.0341 36.1804 33.1932 35.4531 32.0682C34.7259 30.9432 34.3622 29.5114 34.3622 27.7727C34.3622 26.3409 34.6065 25.1193 35.0952 24.108C35.5838 23.0852 36.2656 22.25 37.1406 21.6023C38.0156 20.9545 39.0327 20.4602 40.1918 20.1193C41.3622 19.7784 42.6236 19.5568 43.9759 19.4545C45.4418 19.3409 46.6179 19.2045 47.5043 19.0455C48.402 18.875 49.0497 18.642 49.4474 18.3466C49.8452 18.0398 50.044 17.6364 50.044 17.1364V17.0682C50.044 16.3864 49.7827 15.8636 49.2599 15.5C48.7372 15.1364 48.0668 14.9545 47.2486 14.9545C46.3509 14.9545 45.6179 15.1534 45.0497 15.5511C44.4929 15.9375 44.1577 16.5341 44.044 17.3409H35.3849C35.4986 15.75 36.0043 14.2841 36.902 12.9432C37.8111 11.5909 39.1349 10.5114 40.8736 9.70455C42.6122 8.88636 44.7827 8.47727 47.3849 8.47727C49.2599 8.47727 50.9418 8.69886 52.4304 9.14205C53.919 9.57386 55.1861 10.1818 56.2315 10.9659C57.277 11.7386 58.0724 12.6477 58.6179 13.6932C59.1747 14.7273 59.4531 15.8523 59.4531 17.0682V35H50.6577V31.3182H50.4531C49.9304 32.2955 49.294 33.0852 48.544 33.6875C47.8054 34.2898 46.9588 34.7273 46.0043 35C45.0611 35.2727 44.0213 35.4091 42.8849 35.4091ZM45.9531 29.4773C46.669 29.4773 47.3395 29.3295 47.9645 29.0341C48.6009 28.7386 49.1179 28.3125 49.5156 27.7557C49.9134 27.1989 50.1122 26.5227 50.1122 25.7273V23.5455C49.8622 23.6477 49.5952 23.7443 49.3111 23.8352C49.0384 23.9261 48.7429 24.0114 48.4247 24.0909C48.1179 24.1705 47.7884 24.2443 47.4361 24.3125C47.0952 24.3807 46.7372 24.4432 46.3622 24.5C45.6349 24.6136 45.0384 24.8011 44.5724 25.0625C44.1179 25.3125 43.777 25.625 43.5497 26C43.3338 26.3636 43.2259 26.7727 43.2259 27.2273C43.2259 27.9545 43.4815 28.5114 43.9929 28.8977C44.5043 29.2841 45.1577 29.4773 45.9531 29.4773ZM68.5852 35L62.0398 8.81818H71.4489L74.4489 24.7727H74.6534L77.9943 8.81818H87.1307L90.608 24.6364H90.8125L93.6761 8.81818H103.085L96.5398 35H86.3807L82.6989 20.9545H82.4261L78.7443 35H68.5852ZM115.358 20.2727V35H105.949V8.81818H114.881V13.7955H115.153C115.722 12.1364 116.722 10.8352 118.153 9.89205C119.597 8.94886 121.278 8.47727 123.199 8.47727C125.051 8.47727 126.659 8.90341 128.023 9.75568C129.398 10.5966 130.46 11.7557 131.21 13.233C131.972 14.7102 132.347 16.3977 132.335 18.2955V35H122.926V20.2727C122.938 18.9773 122.608 17.9602 121.938 17.2216C121.278 16.483 120.358 16.1136 119.176 16.1136C118.403 16.1136 117.727 16.2841 117.148 16.625C116.58 16.9545 116.142 17.4318 115.835 18.0568C115.528 18.6705 115.369 19.4091 115.358 20.2727ZM156.974 30.2273V5H164.611V30.2273H156.974ZM148.179 21.4318V13.7955H173.406V21.4318H148.179ZM189.25 35V0.0909081H198.727V27.3636H212.841V35H189.25ZM229.422 35.4773C226.581 35.4773 224.149 34.9148 222.126 33.7898C220.104 32.6534 218.553 31.0739 217.473 29.0511C216.393 27.017 215.854 24.6591 215.854 21.9773C215.854 19.2955 216.393 16.9432 217.473 14.9205C218.553 12.8864 220.104 11.3068 222.126 10.1818C224.149 9.04545 226.581 8.47727 229.422 8.47727C232.263 8.47727 234.695 9.04545 236.717 10.1818C238.74 11.3068 240.291 12.8864 241.371 14.9205C242.45 16.9432 242.99 19.2955 242.99 21.9773C242.99 24.6591 242.45 27.017 241.371 29.0511C240.291 31.0739 238.74 32.6534 236.717 33.7898C234.695 34.9148 232.263 35.4773 229.422 35.4773ZM229.49 28.5227C230.286 28.5227 230.973 28.2557 231.553 27.7216C232.132 27.1875 232.581 26.4261 232.899 25.4375C233.217 24.4489 233.376 23.2727 233.376 21.9091C233.376 20.5341 233.217 19.358 232.899 18.3807C232.581 17.392 232.132 16.6307 231.553 16.0966C230.973 15.5625 230.286 15.2955 229.49 15.2955C228.649 15.2955 227.928 15.5625 227.325 16.0966C226.723 16.6307 226.263 17.392 225.945 18.3807C225.626 19.358 225.467 20.5341 225.467 21.9091C225.467 23.2727 225.626 24.4489 225.945 25.4375C226.263 26.4261 226.723 27.1875 227.325 27.7216C227.928 28.2557 228.649 28.5227 229.49 28.5227ZM272.398 8.81818L263.602 35H252.693L243.898 8.81818H253.784L258.011 26.1364H258.284L262.511 8.81818H272.398ZM286.822 35.4773C284.027 35.4773 281.618 34.9432 279.595 33.875C277.584 32.7955 276.033 31.25 274.942 29.2386C273.862 27.2159 273.322 24.7955 273.322 21.9773C273.322 19.2727 273.868 16.9091 274.959 14.8864C276.05 12.8636 277.589 11.2898 279.578 10.1648C281.567 9.03977 283.913 8.47727 286.618 8.47727C288.595 8.47727 290.385 8.78409 291.987 9.39773C293.589 10.0114 294.959 10.9034 296.095 12.0739C297.232 13.233 298.107 14.642 298.72 16.3011C299.334 17.9602 299.641 19.8295 299.641 21.9091V24.0909H276.254V18.9091H290.982C290.97 18.1591 290.777 17.5 290.402 16.9318C290.038 16.3523 289.544 15.9034 288.919 15.5852C288.305 15.2557 287.607 15.0909 286.822 15.0909C286.061 15.0909 285.362 15.2557 284.726 15.5852C284.089 15.9034 283.578 16.3466 283.192 16.9148C282.817 17.483 282.618 18.1477 282.595 18.9091V24.5C282.595 25.3409 282.771 26.0909 283.124 26.75C283.476 27.4091 283.982 27.9261 284.641 28.3011C285.3 28.6761 286.095 28.8636 287.027 28.8636C287.675 28.8636 288.266 28.7727 288.8 28.5909C289.345 28.4091 289.811 28.1477 290.197 27.8068C290.584 27.4545 290.868 27.0341 291.05 26.5455H299.641C299.345 28.3636 298.646 29.9432 297.544 31.2841C296.442 32.6136 294.982 33.6477 293.163 34.3864C291.357 35.1136 289.243 35.4773 286.822 35.4773Z" fill="black"/>
</svg>
